<svg xmlns="http://www.w3.org/2000/svg" width="42" height="42" viewBox="0 0 42 42">
  <defs>
    <style>
      .cls-1 {
        isolation: isolate;
      }

      .cls-2 {
        fill: #eeff94;
        opacity: 0.5;
        mix-blend-mode: screen;
      }
    </style>
  </defs>
  <g class="cls-1">
    <g id="Baggrund">
      <path class="cls-2" d="M20.36,41.45,17.78,24.76a.66.66,0,0,0-.54-.54L.55,21.64a.65.65,0,0,1,0-1.28l16.69-2.58a.66.66,0,0,0,.54-.54L20.36.55a.65.65,0,0,1,1.28,0l2.58,16.69a.66.66,0,0,0,.54.54l16.69,2.58a.65.65,0,0,1,0,1.28L24.76,24.22a.66.66,0,0,0-.54.54L21.64,41.45A.65.65,0,0,1,20.36,41.45Z"/>
    </g>
  </g>
</svg>
